<?xml version="1.0" standalone="no"?>
<!DOCTYPE svg PUBLIC "-//W3C//DTD SVG 20010904//EN"
 "http://www.w3.org/TR/2001/REC-SVG-20010904/DTD/svg10.dtd">
<svg version="1.0" xmlns="http://www.w3.org/2000/svg"
 width="1280.000000pt" height="640.000000pt" viewBox="0 0 1280.000000 640.000000"
 preserveAspectRatio="xMidYMid meet">
<g transform="translate(0.000000,640.000000) scale(0.100000,-0.100000)"
fill="#000000" stroke="none">
<path d="M6470 6330 c-11 -11 -22 -30 -24 -42 -3 -13 -23 -264 -46 -558 -39
-506 -116 -1497 -160 -2045 -11 -137 -42 -538 -70 -890 -28 -352 -59 -755 -70
-895 -11 -140 -33 -418 -49 -618 -16 -200 -32 -366 -35 -369 -3 -4 -9 -3 -12
0 -4 4 -42 242 -86 529 -172 1149 -350 2330 -369 2458 -24 158 -32 184 -65
199 -36 16 -50 14 -79 -11 -22 -20 -40 -79 -139 -461 -62 -240 -116 -440 -119
-444 -6 -6 -2274 7 -4309 24 l-777 6 -31 -33 c-37 -40 -37 -50 -2 -88 l28 -30
444 -6 c245 -3 1219 -11 2165 -16 946 -5 1912 -11 2147 -12 421 -3 428 -3 448
18 15 15 39 91 86 275 62 238 76 281 89 267 5 -5 45 -261 165 -1063 27 -181
104 -690 170 -1130 66 -440 136 -908 156 -1040 40 -267 47 -288 107 -293 44
-4 74 22 81 70 3 18 19 215 36 438 17 223 40 515 50 650 11 135 36 445 55 690
87 1118 106 1361 125 1595 11 138 42 538 70 890 63 806 60 775 67 808 3 17 9
25 14 20 5 -5 65 -628 134 -1385 69 -757 128 -1383 131 -1392 9 -24 60 -47 88
-40 45 11 84 69 221 329 76 143 142 266 148 273 7 9 566 12 2732 12 1839 0
2732 3 2752 10 16 6 37 24 47 40 16 29 16 31 -1 60 -11 19 -31 34 -53 41 -23
7 -941 9 -2791 7 -2573 -3 -2758 -4 -2776 -20 -10 -9 -63 -102 -118 -207 -55
-105 -105 -191 -112 -191 -7 0 -15 15 -18 33 -2 17 -75 804 -160 1747 -85 943
-157 1729 -160 1747 -10 58 -84 84 -125 43z"/>
</g>
</svg>
